REM GENRE Classical
REM DATE 2019
REM COMMENT uploaded by ANothing
CATALOG 0028948367672
PERFORMER "Ludwig van Beethoven"
TITLE "BTHVN 2020: CD 026 Egmont / The Ruins of Athens / Gratulations-Menuett"
FILE "BTHVN 2020 - CD 026.flac" WAVE
  TRACK 01 AUDIO
    TITLE "Music to Johann Wolfgang von Goethe's Tragedy “Egmont”, op. 84: Overture. Sostenuto, ma non troppo - Allegro"
    INDEX 01 00:00:00
  TRACK 02 AUDIO
    TITLE "Music to Johann Wolfgang von Goethe's Tragedy “Egmont”, op. 84: No. 1 Song: “Die Trommel gerühret” (Clärchen). Vivace"
    INDEX 01 08:05:08
  TRACK 03 AUDIO
    TITLE "Music to Johann Wolfgang von Goethe's Tragedy “Egmont”, op. 84: No. 2 Entr’acte I. Andante - Allegro con brio “Es ist keine falsche Ader an ihm” (Clärchen)"
    INDEX 01 11:02:21
  TRACK 04 AUDIO
    TITLE "Music to Johann Wolfgang von Goethe's Tragedy “Egmont”, op. 84: No. 3 Entr’acte II. Larghetto"
    INDEX 01 14:13:13
  TRACK 05 AUDIO
    TITLE "Music to Johann Wolfgang von Goethe's Tragedy “Egmont”, op. 84: No. 4 Song: “Freudvoll und leidvoll” (Clärchen). Andante con moto - Allegro assai vivace"
    INDEX 01 19:13:07
  TRACK 06 AUDIO
    TITLE "Music to Johann Wolfgang von Goethe's Tragedy “Egmont”, op. 84: No. 5 Entr’acte III. Allegro - Marcia. Vivace. “Der König meint” (Regent)"
    INDEX 01 20:51:11
  TRACK 07 AUDIO
    TITLE "Music to Johann Wolfgang von Goethe's Tragedy “Egmont”, op. 84: No. 6 Entr’acte IV. Poco sostenuto e risoluto - Larghetto - Andante agitato"
    INDEX 01 24:43:20
  TRACK 08 AUDIO
    TITLE "Music to Johann Wolfgang von Goethe's Tragedy “Egmont”, op. 84: No. 7 Clärchen’s Death. Larghetto. “Arme Seele!” (Egmont)"
    INDEX 01 28:20:02
  TRACK 09 AUDIO
    TITLE "Music to Johann Wolfgang von Goethe's Tragedy “Egmont”, op. 84: No. 8 Melodrama. “Süßer Schlaf! Du kommst wie ein reines Glück” (Egmont). Poco sostenuto"
    INDEX 01 31:04:14
  TRACK 10 AUDIO
    TITLE "Music to Johann Wolfgang von Goethe's Tragedy “Egmont”, op. 84: No. 9 Victory Symphony. Allegro con brio"
    INDEX 01 36:19:13
  TRACK 11 AUDIO
    TITLE "Music to August von Kotzebue's Festival Play “Die Ruinen von Athen”, op. 113: Overture. Andante con moto - Allegro ma non troppo"
    INDEX 01 37:42:49
  TRACK 12 AUDIO
    TITLE "Music to August von Kotzebue's Festival Play “Die Ruinen von Athen”, op. 113: No. 1 Chorus: “Tochter des mächtigen Zeus”. Andante poco sostenuto"
    INDEX 01 42:53:01
  TRACK 13 AUDIO
    TITLE "Music to August von Kotzebue's Festival Play “Die Ruinen von Athen”, op. 113: No. 2 Duet: “Ohne Verschulden Knechtschaft dulden”. Andante con moto - Poco più mosso (A Greek Man, a Greek Woman)"
    INDEX 01 47:01:25
  TRACK 14 AUDIO
    TITLE "Music to August von Kotzebue's Festival Play “Die Ruinen von Athen”, op. 113: No. 3 Chorus of Dervishes: “Du hast in deines Ärmels Falten den Mond getragen”. Allegro ma non troppo"
    INDEX 01 52:27:27
  TRACK 15 AUDIO
    TITLE "Music to August von Kotzebue's Festival Play “Die Ruinen von Athen”, op. 113: No. 4 Marcia alla turca. Vivace / [No. 5 Offstage Music: “Es wandelt schon das Volk im Feierkleide”. Allegro assai ma non troppo]"
    INDEX 01 54:59:01
  TRACK 16 AUDIO
    TITLE "Music to August von Kotzebue's Festival Play “Die Ruinen von Athen”, op. 113: No. 6. March and Chorus: “Schmückt die Altäre!”. Assai moderato"
    INDEX 01 56:48:03
  TRACK 17 AUDIO
    TITLE "Music to August von Kotzebue's Festival Play “Die Ruinen von Athen”, op. 113: Recitative: “Mit reger Freude, die nie erkaltet”. Poco Adagio (High Priest)"
    INDEX 01 63:20:13
  TRACK 18 AUDIO
    TITLE "Music to August von Kotzebue's Festival Play “Die Ruinen von Athen”, op. 113: No. 7 Chorus: “Wir tragen empfängliche Herzen im Busen”. Allegretto, ma non troppo"
    INDEX 01 65:19:14
  TRACK 19 AUDIO
    TITLE "Music to August von Kotzebue's Festival Play “Die Ruinen von Athen”, op. 113: Aria with Chorus: “Will unser Genius noch einen Wunsch gewähren”. Adagio"
    INDEX 01 68:13:74
  TRACK 20 AUDIO
    TITLE "Music to August von Kotzebue's Festival Play “Die Ruinen von Athen”, op. 113: No. 8 Chorus: “Heil unserm König! Heil!”. Allegro con fuoco"
    INDEX 01 73:56:41
  TRACK 21 AUDIO
    TITLE "Minuet for Orchestra in E‐flat, WoO 3 (“Gratulations-Menuett”): Tempo di menuetto quasi Allegretto"
    INDEX 01 77:38:66
